<svg xmlns="http://www.w3.org/2000/svg" width="24" height="24" viewBox="0 0 24 24" fill="none">
  <path
    d="M12 2C8.7 2 6 4.4 6 7.5V10H5C4.4 10 4 10.4 4 11V13C4 13.6 4.4 14 5 14H6V17.5C6 18.3 6.7 19 7.5 19H9V20.5C9 21.3 9.7 22 10.5 22H13.5C14.3 22 15 21.3 15 20.5V19H16.5C17.3 19 18 18.3 18 17.5V14H19C19.6 14 20 13.6 20 13V11C20 10.4 19.6 10 19 10H18V7.5C18 4.4 15.3 2 12 2Z"
    fill="#000000"
  />
  <path
    d="M17.2 1.2L18.1 3.4L20.3 4L18.6 5.6L19.1 7.8L17.2 6.8L15.3 7.8L15.8 5.6L14.1 4L16.3 3.4L17.2 1.2Z"
    fill="#000000"
  />
</svg>
